<?xml version="1.0" encoding="UTF-8" standalone="no"?><svg xmlns="http://www.w3.org/2000/svg" xmlns:xlink="http://www.w3.org/1999/xlink" contentStyleType="text/css" height="987.3px" preserveAspectRatio="none" style="width:884px;height:987px;background:#FFFFFF;" version="1.1" viewBox="0 0 884 987" width="884.7px" zoomAndPan="magnify"><defs/><g><!--MD5=[08328a73aae67b676304bb806bba231d]
class src.DNASequence.DNASequence--><g id="elem_src.DNASequence.DNASequence"><rect codeLine="3" fill="#F1F1F1" height="116.5359" id="src.DNASequence.DNASequence" rx="2.25" ry="2.25" style="stroke:#181818;stroke-width:0.45;" width="180.9" x="176.4" y="6.3"/><ellipse cx="217.125" cy="20.7" fill="#ADD1B2" rx="9.9" ry="9.9" style="stroke:#181818;stroke-width:0.9;"/><path d="M219.7969,25.7766 Q219.2766,26.0438 218.7,26.1703 Q218.1234,26.3109 217.4906,26.3109 Q215.2406,26.3109 214.0453,24.8344 Q212.8641,23.3438 212.8641,20.5313 Q212.8641,17.7188 214.0453,16.2281 Q215.2406,14.7375 217.4906,14.7375 Q218.1234,14.7375 218.7,14.8781 Q219.2906,15.0188 219.7969,15.2859 L219.7969,17.7328 Q219.2344,17.2125 218.7,16.9734 Q218.1656,16.7203 217.6031,16.7203 Q216.3938,16.7203 215.775,17.6906 Q215.1563,18.6469 215.1563,20.5313 Q215.1563,22.4156 215.775,23.3859 Q216.3938,24.3422 217.6031,24.3422 Q218.1656,24.3422 218.7,24.1031 Q219.2344,23.85 219.7969,23.3297 L219.7969,25.7766 Z " fill="#000000"/><text fill="#000000" font-family="sans-serif" font-size="12.6" lengthAdjust="spacing" textLength="91.8" x="235.575" y="25.062">DNASequence</text><line style="stroke:#181818;stroke-width:0.45;" x1="177.3" x2="356.4" y1="35.1" y2="35.1"/><text fill="#000000" font-family="sans-serif" font-size="12.6" lengthAdjust="spacing" textLength="96.3" x="181.8" y="50.3956">_sequence : str</text><line style="stroke:#181818;stroke-width:0.45;" x1="177.3" x2="356.4" y1="56.9672" y2="56.9672"/><text fill="#000000" font-family="sans-serif" font-size="12.6" lengthAdjust="spacing" textLength="140.4" x="181.8" y="72.2628">__init__(sequence: str)</text><text fill="#000000" font-family="sans-serif" font-size="12.6" lengthAdjust="spacing" textLength="170.1" x="181.8" y="86.93">get_rc() -&gt; 'DNASequence'</text><text fill="#000000" font-family="sans-serif" font-size="12.6" lengthAdjust="spacing" textLength="136.8" x="181.8" y="101.5972">get_sequence() -&gt; str</text><text fill="#000000" font-family="sans-serif" font-size="12.6" lengthAdjust="spacing" textLength="109.8" x="181.8" y="116.2644">shift(amount: int)</text></g><!--MD5=[a77681502626153a4bc6feb770437004]
class FastaFile.FastaFile--><g id="elem_FastaFile.FastaFile"><rect codeLine="10" fill="#F1F1F1" height="87.2016" id="FastaFile.FastaFile" rx="2.25" ry="2.25" style="stroke:#181818;stroke-width:0.45;" width="227.7" x="408.6" y="522.9"/><ellipse cx="490.275" cy="537.3" fill="#ADD1B2" rx="9.9" ry="9.9" style="stroke:#181818;stroke-width:0.9;"/><path d="M492.9469,542.3766 Q492.4266,542.6438 491.85,542.7703 Q491.2734,542.9109 490.6406,542.9109 Q488.3906,542.9109 487.1953,541.4344 Q486.0141,539.9438 486.0141,537.1313 Q486.0141,534.3188 487.1953,532.8281 Q488.3906,531.3375 490.6406,531.3375 Q491.2734,531.3375 491.85,531.4781 Q492.4406,531.6188 492.9469,531.8859 L492.9469,534.3328 Q492.3844,533.8125 491.85,533.5734 Q491.3156,533.3203 490.7531,533.3203 Q489.5438,533.3203 488.925,534.2906 Q488.3063,535.2469 488.3063,537.1313 Q488.3063,539.0156 488.925,539.9859 Q489.5438,540.9422 490.7531,540.9422 Q491.3156,540.9422 491.85,540.7031 Q492.3844,540.45 492.9469,539.9297 L492.9469,542.3766 Z " fill="#000000"/><text fill="#000000" font-family="sans-serif" font-size="12.6" lengthAdjust="spacing" textLength="56.7" x="508.725" y="541.662">FastaFile</text><line style="stroke:#181818;stroke-width:0.45;" x1="409.5" x2="635.4" y1="551.7" y2="551.7"/><text fill="#000000" font-family="sans-serif" font-size="12.6" lengthAdjust="spacing" textLength="198.9" x="414" y="566.9956">_all_records : List[FastaRecord]</text><line style="stroke:#181818;stroke-width:0.45;" x1="409.5" x2="635.4" y1="573.5672" y2="573.5672"/><text fill="#000000" font-family="sans-serif" font-size="12.6" lengthAdjust="spacing" textLength="176.4" x="414" y="588.8628">__init__(fasta_filepath: Path)</text><text fill="#000000" font-family="sans-serif" font-size="12.6" lengthAdjust="spacing" textLength="216.9" x="414" y="603.53">get_all_plasmids() -&gt; List[Plasmid]</text></g><!--MD5=[3d97e2015f9a38d2b33ba2325a47a68a]
class src.FastaRecord.FastaRecord--><g id="elem_src.FastaRecord.FastaRecord"><rect codeLine="16" fill="#F1F1F1" height="131.2031" id="src.FastaRecord.FastaRecord" rx="2.25" ry="2.25" style="stroke:#181818;stroke-width:0.45;" width="319.5" x="211.5" y="322.2"/><ellipse cx="327.375" cy="336.6" fill="#ADD1B2" rx="9.9" ry="9.9" style="stroke:#181818;stroke-width:0.9;"/><path d="M330.0469,341.6766 Q329.5266,341.9438 328.95,342.0703 Q328.3734,342.2109 327.7406,342.2109 Q325.4906,342.2109 324.2953,340.7344 Q323.1141,339.2438 323.1141,336.4313 Q323.1141,333.6188 324.2953,332.1281 Q325.4906,330.6375 327.7406,330.6375 Q328.3734,330.6375 328.95,330.7781 Q329.5406,330.9188 330.0469,331.1859 L330.0469,333.6328 Q329.4844,333.1125 328.95,332.8734 Q328.4156,332.6203 327.8531,332.6203 Q326.6438,332.6203 326.025,333.5906 Q325.4063,334.5469 325.4063,336.4313 Q325.4063,338.3156 326.025,339.2859 Q326.6438,340.2422 327.8531,340.2422 Q328.4156,340.2422 328.95,340.0031 Q329.4844,339.75 330.0469,339.2297 L330.0469,341.6766 Z " fill="#000000"/><text fill="#000000" font-family="sans-serif" font-size="12.6" lengthAdjust="spacing" textLength="80.1" x="345.825" y="340.962">FastaRecord</text><line style="stroke:#181818;stroke-width:0.45;" x1="212.4" x2="530.1" y1="351" y2="351"/><text fill="#000000" font-family="sans-serif" font-size="12.6" lengthAdjust="spacing" textLength="95.4" x="216.9" y="366.2956">_comment : str</text><text fill="#000000" font-family="sans-serif" font-size="12.6" lengthAdjust="spacing" textLength="171.9" x="216.9" y="380.9628">_sequence : DNASequence</text><line style="stroke:#181818;stroke-width:0.45;" x1="212.4" x2="530.1" y1="387.5344" y2="387.5344"/><text fill="#000000" font-family="sans-serif" font-size="12.6" lengthAdjust="spacing" textLength="308.7" x="216.9" y="402.83">__init__(comment: str, sequence: DNASequence)</text><text fill="#000000" font-family="sans-serif" font-size="12.6" lengthAdjust="spacing" textLength="135.9" x="216.9" y="417.4972">get_comment() -&gt; str</text><text fill="#000000" font-family="sans-serif" font-size="12.6" lengthAdjust="spacing" textLength="212.4" x="216.9" y="432.1644">get_sequence() -&gt; DNASequence</text><text fill="#000000" font-family="sans-serif" font-size="12.6" lengthAdjust="spacing" textLength="126" x="216.9" y="446.8315">is_plasmid() -&gt; bool</text></g><!--MD5=[cd8ea46b2da33903ca37b5babc612eed]
class Gene.Gene--><g id="elem_Gene.Gene"><rect codeLine="24" fill="#F1F1F1" height="145.8703" id="Gene.Gene" rx="2.25" ry="2.25" style="stroke:#181818;stroke-width:0.45;" width="346.5" x="531.9" y="679.5"/><ellipse cx="684.225" cy="693.9" fill="#ADD1B2" rx="9.9" ry="9.9" style="stroke:#181818;stroke-width:0.9;"/><path d="M686.8969,698.9766 Q686.3766,699.2438 685.8,699.3703 Q685.2234,699.5109 684.5906,699.5109 Q682.3406,699.5109 681.1453,698.0344 Q679.9641,696.5438 679.9641,693.7313 Q679.9641,690.9188 681.1453,689.4281 Q682.3406,687.9375 684.5906,687.9375 Q685.2234,687.9375 685.8,688.0781 Q686.3906,688.2188 686.8969,688.4859 L686.8969,690.9328 Q686.3344,690.4125 685.8,690.1734 Q685.2656,689.9203 684.7031,689.9203 Q683.4938,689.9203 682.875,690.8906 Q682.2563,691.8469 682.2563,693.7313 Q682.2563,695.6156 682.875,696.5859 Q683.4938,697.5422 684.7031,697.5422 Q685.2656,697.5422 685.8,697.3031 Q686.3344,697.05 686.8969,696.5297 L686.8969,698.9766 Z " fill="#000000"/><text fill="#000000" font-family="sans-serif" font-size="12.6" lengthAdjust="spacing" textLength="34.2" x="702.675" y="698.262">Gene</text><line style="stroke:#181818;stroke-width:0.45;" x1="532.8" x2="877.5" y1="708.3" y2="708.3"/><text fill="#000000" font-family="sans-serif" font-size="12.6" lengthAdjust="spacing" textLength="117.9" x="537.3" y="723.5956">_plasmid : Plasmid</text><text fill="#000000" font-family="sans-serif" font-size="12.6" lengthAdjust="spacing" textLength="87.3" x="537.3" y="738.2628">_end_pos : int</text><text fill="#000000" font-family="sans-serif" font-size="12.6" lengthAdjust="spacing" textLength="91.8" x="537.3" y="752.93">_start_pos : int</text><line style="stroke:#181818;stroke-width:0.45;" x1="532.8" x2="877.5" y1="759.5016" y2="759.5016"/><text fill="#000000" font-family="sans-serif" font-size="12.6" lengthAdjust="spacing" textLength="335.7" x="537.3" y="774.7972">__init__(plasmid: Plasmid, start_pos: int, end_pos: int)</text><text fill="#000000" font-family="sans-serif" font-size="12.6" lengthAdjust="spacing" textLength="227.7" x="537.3" y="789.4644">_get_transcripts() -&gt; List[Transcript]</text><text fill="#000000" font-family="sans-serif" font-size="12.6" lengthAdjust="spacing" textLength="261.9" x="537.3" y="804.1315">get_coding_sequence() -&gt; DNASequence</text><text fill="#000000" font-family="sans-serif" font-size="12.6" lengthAdjust="spacing" textLength="141.3" x="537.3" y="818.7987">is_expressed() -&gt; bool</text></g><!--MD5=[5d69db7a55fe962917e66209096f3a14]
class Plasmid.Plasmid--><g id="elem_Plasmid.Plasmid"><rect codeLine="34" fill="#F1F1F1" height="101.8688" id="Plasmid.Plasmid" rx="2.25" ry="2.25" style="stroke:#181818;stroke-width:0.45;" width="195.3" x="234" y="701.55"/><ellipse cx="303.075" cy="715.95" fill="#ADD1B2" rx="9.9" ry="9.9" style="stroke:#181818;stroke-width:0.9;"/><path d="M305.7469,721.0266 Q305.2266,721.2938 304.65,721.4203 Q304.0734,721.5609 303.4406,721.5609 Q301.1906,721.5609 299.9953,720.0844 Q298.8141,718.5938 298.8141,715.7813 Q298.8141,712.9688 299.9953,711.4781 Q301.1906,709.9875 303.4406,709.9875 Q304.0734,709.9875 304.65,710.1281 Q305.2406,710.2688 305.7469,710.5359 L305.7469,712.9828 Q305.1844,712.4625 304.65,712.2234 Q304.1156,711.9703 303.5531,711.9703 Q302.3438,711.9703 301.725,712.9406 Q301.1063,713.8969 301.1063,715.7813 Q301.1063,717.6656 301.725,718.6359 Q302.3438,719.5922 303.5531,719.5922 Q304.1156,719.5922 304.65,719.3531 Q305.1844,719.1 305.7469,718.5797 L305.7469,721.0266 Z " fill="#000000"/><text fill="#000000" font-family="sans-serif" font-size="12.6" lengthAdjust="spacing" textLength="49.5" x="321.525" y="720.312">Plasmid</text><line style="stroke:#181818;stroke-width:0.45;" x1="234.9" x2="428.4" y1="730.35" y2="730.35"/><text fill="#000000" font-family="sans-serif" font-size="12.6" lengthAdjust="spacing" textLength="136.8" x="239.4" y="745.6456">_record: FastaRecord</text><line style="stroke:#181818;stroke-width:0.45;" x1="234.9" x2="428.4" y1="752.2172" y2="752.2172"/><text fill="#000000" font-family="sans-serif" font-size="12.6" lengthAdjust="spacing" textLength="184.5" x="239.4" y="767.5128">__init__(record: FastaRecord)</text><text fill="#000000" font-family="sans-serif" font-size="12.6" lengthAdjust="spacing" textLength="162" x="239.4" y="782.18">get_genes() -&gt; List[Gene]</text><text fill="#000000" font-family="sans-serif" font-size="12.6" lengthAdjust="spacing" textLength="180.9" x="239.4" y="796.8472">get_record() -&gt; FastaRecord</text></g><!--MD5=[8540438ca7a654838a6c33c4bf0495ba]
class src.ProteinSequence.ProteinSequence--><g id="elem_src.ProteinSequence.ProteinSequence"><rect codeLine="41" fill="#F1F1F1" height="145.8703" id="src.ProteinSequence.ProteinSequence" rx="2.25" ry="2.25" style="stroke:#181818;stroke-width:0.45;" width="323.1" x="6.3" y="149.4"/><ellipse cx="109.575" cy="163.8" fill="#ADD1B2" rx="9.9" ry="9.9" style="stroke:#181818;stroke-width:0.9;"/><path d="M112.2469,168.8766 Q111.7266,169.1438 111.15,169.2703 Q110.5734,169.4109 109.9406,169.4109 Q107.6906,169.4109 106.4953,167.9344 Q105.3141,166.4438 105.3141,163.6313 Q105.3141,160.8188 106.4953,159.3281 Q107.6906,157.8375 109.9406,157.8375 Q110.5734,157.8375 111.15,157.9781 Q111.7406,158.1188 112.2469,158.3859 L112.2469,160.8328 Q111.6844,160.3125 111.15,160.0734 Q110.6156,159.8203 110.0531,159.8203 Q108.8438,159.8203 108.225,160.7906 Q107.6063,161.7469 107.6063,163.6313 Q107.6063,165.5156 108.225,166.4859 Q108.8438,167.4422 110.0531,167.4422 Q110.6156,167.4422 111.15,167.2031 Q111.6844,166.95 112.2469,166.4297 L112.2469,168.8766 Z " fill="#000000"/><text fill="#000000" font-family="sans-serif" font-size="12.6" lengthAdjust="spacing" textLength="108.9" x="128.025" y="168.162">ProteinSequence</text><line style="stroke:#181818;stroke-width:0.45;" x1="7.2" x2="328.5" y1="178.2" y2="178.2"/><text fill="#000000" font-family="sans-serif" font-size="12.6" lengthAdjust="spacing" textLength="96.3" x="11.7" y="193.4956">_sequence : str</text><line style="stroke:#181818;stroke-width:0.45;" x1="7.2" x2="328.5" y1="200.0672" y2="200.0672"/><text fill="#000000" font-family="sans-serif" font-size="12.6" lengthAdjust="spacing" textLength="216" x="11.7" y="215.3628">__init__(sequence: DNASequence)</text><text fill="#000000" font-family="sans-serif" font-size="12.6" lengthAdjust="spacing" textLength="295.2" x="11.7" y="230.03">get_count_of_aminoacid(aminoacid: str) -&gt; int</text><text fill="#000000" font-family="sans-serif" font-size="12.6" lengthAdjust="spacing" textLength="312.3" x="11.7" y="244.6972">get_first_pos_of_aminoacid(aminoacid: str) -&gt; int</text><text fill="#000000" font-family="sans-serif" font-size="12.6" lengthAdjust="spacing" textLength="310.5" x="11.7" y="259.3644">get_last_pos_of_aminoacid(aminoacid: str) -&gt; int</text><text fill="#000000" font-family="sans-serif" font-size="12.6" lengthAdjust="spacing" textLength="136.8" x="11.7" y="274.0315">get_sequence() -&gt; str</text><text fill="#000000" font-family="sans-serif" font-size="12.6" lengthAdjust="spacing" textLength="195.3" x="11.7" y="288.6987">trim(first_pos: int, last_pos: int)</text></g><!--MD5=[b3e0ca5ede02bd314bb6dcb8a5f706c2]
class Transcript.Transcript--><g id="elem_Transcript.Transcript"><rect codeLine="50" fill="#F1F1F1" height="87.2016" id="Transcript.Transcript" rx="2.25" ry="2.25" style="stroke:#181818;stroke-width:0.45;" width="301.5" x="38.7" y="894.6"/><ellipse cx="153.225" cy="909" fill="#ADD1B2" rx="9.9" ry="9.9" style="stroke:#181818;stroke-width:0.9;"/><path d="M155.8969,914.0766 Q155.3766,914.3438 154.8,914.4703 Q154.2234,914.6109 153.5906,914.6109 Q151.3406,914.6109 150.1453,913.1344 Q148.9641,911.6438 148.9641,908.8313 Q148.9641,906.0188 150.1453,904.5281 Q151.3406,903.0375 153.5906,903.0375 Q154.2234,903.0375 154.8,903.1781 Q155.3906,903.3188 155.8969,903.5859 L155.8969,906.0328 Q155.3344,905.5125 154.8,905.2734 Q154.2656,905.0203 153.7031,905.0203 Q152.4938,905.0203 151.875,905.9906 Q151.2563,906.9469 151.2563,908.8313 Q151.2563,910.7156 151.875,911.6859 Q152.4938,912.6422 153.7031,912.6422 Q154.2656,912.6422 154.8,912.4031 Q155.3344,912.15 155.8969,911.6297 L155.8969,914.0766 Z " fill="#000000"/><text fill="#000000" font-family="sans-serif" font-size="12.6" lengthAdjust="spacing" textLength="64.8" x="171.675" y="913.362">Transcript</text><line style="stroke:#181818;stroke-width:0.45;" x1="39.6" x2="339.3" y1="923.4" y2="923.4"/><text fill="#000000" font-family="sans-serif" font-size="12.6" lengthAdjust="spacing" textLength="237.6" x="44.1" y="938.6956">_protein_sequence: ProteinSequence</text><line style="stroke:#181818;stroke-width:0.45;" x1="39.6" x2="339.3" y1="945.2672" y2="945.2672"/><text fill="#000000" font-family="sans-serif" font-size="12.6" lengthAdjust="spacing" textLength="290.7" x="44.1" y="960.5628">__init__(gene: Gene, reverse: bool, frame: int)</text><text fill="#000000" font-family="sans-serif" font-size="12.6" lengthAdjust="spacing" textLength="112.5" x="44.1" y="975.23">has_PTC() -&gt; bool</text></g><!--MD5=[ef525478f64ff551de582fbd6afb6f71]
link src.DNASequence.DNASequence to src.FastaRecord.FastaRecord--><g id="link_src.DNASequence.DNASequence_src.FastaRecord.FastaRecord"><path codeLine="56" d="M318.258,122.535 C324.108,131.121 329.409,140.184 333.45,149.4 C355.734,200.169 365.076,262.179 368.901,310.113 " fill="none" id="src.DNASequence.DNASequence-to-src.FastaRecord.FastaRecord" style="stroke:#181818;stroke-width:0.9;"/><polygon fill="#181818" points="369.756,321.984,372.9608,316.3405,368.984,311.2116,365.7792,316.8551,369.756,321.984" style="stroke:#181818;stroke-width:0.9;"/><text fill="#000000" font-family="sans-serif" font-size="11.7" lengthAdjust="spacing" textLength="62.1" x="367.65" y="226.4102">_sequence</text></g><!--MD5=[5b9e98f2663de05ff7538b9c7fa519ee]
link src.DNASequence.DNASequence to src.ProteinSequence.ProteinSequence--><g id="link_src.DNASequence.DNASequence_src.ProteinSequence.ProteinSequence"><path codeLine="57" d="M230.544,122.508 C225.891,129.852 221.067,137.457 216.261,145.053 " fill="none" id="src.DNASequence.DNASequence-to-src.ProteinSequence.ProteinSequence" style="stroke:#181818;stroke-width:0.9;"/><polygon fill="#181818" points="213.588,149.256,220.9771,144.36,216.0064,145.4611,214.9053,140.4905,213.588,149.256" style="stroke:#181818;stroke-width:0.9;"/></g><!--MD5=[1c5ae1d5089d753feca25113f96fb9d2]
link Plasmid.Plasmid to Gene.Gene--><g id="link_Plasmid.Plasmid_Gene.Gene"><path codeLine="58" d="M429.327,768.141 C437.373,769.05 445.392,769.824 453.15,770.4 C474.759,771.993 497.403,772.299 519.885,771.759 " fill="none" id="Plasmid.Plasmid-to-Gene.Gene" style="stroke:#181818;stroke-width:0.9;"/><polygon fill="#181818" points="531.63,771.399,526.1218,767.9668,520.8351,771.7312,526.3433,775.1634,531.63,771.399" style="stroke:#181818;stroke-width:0.9;"/><text fill="#000000" font-family="sans-serif" font-size="11.7" lengthAdjust="spacing" textLength="53.1" x="454.05" y="766.8602">_plasmid</text></g><!--MD5=[1c5ae1d5089d753feca25113f96fb9d2]
link Plasmid.Plasmid to Gene.Gene--><g id="link_Plasmid.Plasmid_Gene.Gene"><path codeLine="59" d="M429.543,752.4 C459.531,752.4 493.515,752.4 527.121,752.4 " fill="none" id="Plasmid.Plasmid-to-Gene.Gene-1" style="stroke:#181818;stroke-width:0.9;"/><polygon fill="#181818" points="531.639,752.4,523.539,748.8,527.139,752.4,523.539,756,531.639,752.4" style="stroke:#181818;stroke-width:0.9;"/><text fill="#000000" font-family="sans-serif" font-size="11.7" lengthAdjust="spacing" textLength="69.3" x="445.95" y="746.1602">get_genes()</text></g><!--MD5=[c739f5d8e271d843bf1697e4e760bec7]
link src.FastaRecord.FastaRecord to Plasmid.Plasmid--><g id="link_src.FastaRecord.FastaRecord_Plasmid.Plasmid"><path codeLine="60" d="M358.542,453.735 C354.627,475.641 350.622,500.265 347.85,522.9 C340.974,579.096 336.735,643.437 334.332,689.517 " fill="none" id="src.FastaRecord.FastaRecord-to-Plasmid.Plasmid" style="stroke:#181818;stroke-width:0.9;"/><polygon fill="#181818" points="333.729,701.415,337.5973,696.2038,334.2748,690.6288,330.4065,695.84,333.729,701.415" style="stroke:#181818;stroke-width:0.9;"/><text fill="#000000" font-family="sans-serif" font-size="11.7" lengthAdjust="spacing" textLength="43.2" x="348.75" y="570.6602">_record</text></g><!--MD5=[a77b34f6208848180df2e12d497abd61]
link src.ProteinSequence.ProteinSequence to Transcript.Transcript--><g id="link_src.ProteinSequence.ProteinSequence_Transcript.Transcript"><path codeLine="61" d="M165.96,295.227 C164.727,348.336 163.35,422.334 163.35,487.35 C163.35,487.35 163.35,487.35 163.35,753.3 C163.35,797.175 170.712,846.36 177.615,882.837 " fill="none" id="src.ProteinSequence.ProteinSequence-to-Transcript.Transcript" style="stroke:#181818;stroke-width:0.9;"/><polygon fill="#181818" points="179.883,894.456,182.385,888.4677,177.8197,883.8549,175.3177,889.8432,179.883,894.456" style="stroke:#181818;stroke-width:0.9;"/><text fill="#000000" font-family="sans-serif" font-size="11.7" lengthAdjust="spacing" textLength="103.5" x="164.25" y="570.6602">protein_sequence</text></g><!--MD5=[4b9e42aebaa0c142d8a59c585e861923]
link src.FastaRecord.FastaRecord to FastaFile.FastaFile--><g id="link_src.FastaRecord.FastaRecord_FastaFile.FastaFile"><path codeLine="62" d="M426.69,453.645 C443.637,473.472 462.051,495 478.152,513.837 " fill="none" id="src.FastaRecord.FastaRecord-to-FastaFile.FastaFile" style="stroke:#181818;stroke-width:0.9;"/><polygon fill="#181818" points="485.856,522.846,485.082,516.4023,478.8363,514.6385,479.6103,521.0822,485.856,522.846" style="stroke:#181818;stroke-width:0.9;"/><text fill="#000000" font-family="sans-serif" font-size="11.7" lengthAdjust="spacing" textLength="70.2" x="461.25" y="492.3602">_all_records</text></g><!--MD5=[066d593e0aa6a45744bc5b40bc44d786]
link FastaFile.FastaFile to Plasmid.Plasmid--><g id="link_FastaFile.FastaFile_Plasmid.Plasmid"><path codeLine="63" d="M477.954,610.371 C450.864,636.498 416.034,670.104 387.153,697.959 " fill="none" id="FastaFile.FastaFile-to-Plasmid.Plasmid" style="stroke:#181818;stroke-width:0.9;"/><polygon fill="#181818" points="383.661,701.325,391.9906,698.2939,386.9003,698.2014,386.9929,693.1111,383.661,701.325" style="stroke:#181818;stroke-width:0.9;"/><text fill="#000000" font-family="sans-serif" font-size="11.7" lengthAdjust="spacing" textLength="108" x="450.45" y="648.9602">get_all_plasmids()</text></g><!--MD5=[a7368384bf7339c5468601e8914222cf]
link Gene.Gene to Transcript.Transcript--><g id="link_Gene.Gene_Transcript.Transcript"><path codeLine="64" d="M531.639,815.229 C460.224,840.717 379.107,869.661 313.785,892.971 " fill="none" id="Gene.Gene-to-Transcript.Transcript" style="stroke:#181818;stroke-width:0.9;"/><polygon fill="#181818" points="309.51,894.501,318.3474,895.1873,313.7513,892.9973,315.9414,888.4012,309.51,894.501" style="stroke:#181818;stroke-width:0.9;"/><text fill="#000000" font-family="sans-serif" font-size="11.7" lengthAdjust="spacing" textLength="102.6" x="417.15" y="864.0602">_get_transcripts()</text></g><!--MD5=[8e4f0ba42d1fa66f66c9ecf2469a9291]
@startuml classes
set namespaceSeparator none

class "DNASequence" as src.DNASequence.DNASequence {
  _sequence : str
  __init__(sequence: str)
  get_rc() -> 'DNASequence'
  get_sequence() -> str
  shift(amount: int)
}
class "FastaFile" as FastaFile.FastaFile {
  _all_records : List[FastaRecord]
  __init__(fasta_filepath: Path)
  get_all_plasmids() -> List[Plasmid]
}

class "FastaRecord" as src.FastaRecord.FastaRecord {
  _comment : str
  _sequence : DNASequence
  __init__(comment: str, sequence: DNASequence)
  get_comment() -> str
  get_sequence() -> DNASequence
  is_plasmid() -> bool
}
class "Gene" as Gene.Gene {
  _plasmid : Plasmid
  _end_pos : int
  _start_pos : int
  __init__(plasmid: Plasmid, start_pos: int, end_pos: int)
  _get_transcripts() -> List[Transcript]
  get_coding_sequence() -> DNASequence
  is_expressed() -> bool
}

class "Plasmid" as Plasmid.Plasmid {
  _record: FastaRecord
  __init__(record: FastaRecord)
  get_genes() -> List[Gene]
  get_record() -> FastaRecord
}

class "ProteinSequence" as src.ProteinSequence.ProteinSequence {
  _sequence : str
  __init__(sequence: DNASequence)
  get_count_of_aminoacid(aminoacid: str) -> int
  get_first_pos_of_aminoacid(aminoacid: str) -> int
  get_last_pos_of_aminoacid(aminoacid: str) -> int
  get_sequence() -> str
  trim(first_pos: int, last_pos: int)
}
class "Transcript" as Transcript.Transcript {
  _protein_sequence: ProteinSequence
  __init__(gene: Gene, reverse: bool, frame: int)
  has_PTC() -> bool
}

src.DNASequence.DNASequence - -* src.FastaRecord.FastaRecord : _sequence
src.DNASequence.DNASequence -> src.ProteinSequence.ProteinSequence : constructor
Plasmid.Plasmid - -* Gene.Gene : _plasmid
Plasmid.Plasmid -> Gene.Gene : get_genes()
src.FastaRecord.FastaRecord - -* Plasmid.Plasmid : _record
src.ProteinSequence.ProteinSequence - -* Transcript.Transcript : protein_sequence
src.FastaRecord.FastaRecord - -* FastaFile.FastaFile : _all_records
FastaFile.FastaFile - -> Plasmid.Plasmid : get_all_plasmids()
Gene.Gene - -> Transcript.Transcript : _get_transcripts()
@enduml

PlantUML version 1.2022.13(Sat Nov 19 13:22:17 GMT 2022)
(GPL source distribution)
Java Runtime: OpenJDK Runtime Environment
JVM: OpenJDK 64-Bit Server VM
Default Encoding: UTF-8
Language: en
Country: GB
--></g></svg>